<mxfile host="65bd71144e">
    <diagram id="Go4E_3J5ffxxQ-Kuwa3K" name="第 1 页">
        <mxGraphModel dx="815" dy="602" grid="0" gridSize="10" guides="1" tooltips="1" connect="1" arrows="1" fold="1" page="1" pageScale="1" pageWidth="827" pageHeight="1169" background="#FFFFE0" math="0" shadow="0">
            <root>
                <mxCell id="0"/>
                <mxCell id="1" parent="0"/>
                <mxCell id="4" style="edgeStyle=none;html=1;fontSize=16;entryX=0.5;entryY=0;entryDx=0;entryDy=0;sketch=1;curveFitting=1;jiggle=2;strokeColor=#000000;" parent="1" source="3" target="5" edge="1">
                    <mxGeometry relative="1" as="geometry">
                        <mxPoint x="240" y="200" as="targetPoint"/>
                    </mxGeometry>
                </mxCell>
                <mxCell id="3" value="&lt;font color=&quot;#000000&quot; style=&quot;font-size: 16px;&quot;&gt;condition&lt;/font&gt;" style="rhombus;whiteSpace=wrap;html=1;sketch=1;curveFitting=1;jiggle=2;strokeColor=#000000;fillColor=#00FF80;" parent="1" vertex="1">
                    <mxGeometry x="175" y="100" width="130" height="60" as="geometry"/>
                </mxCell>
                <mxCell id="21" style="edgeStyle=none;html=1;dashed=1;fontSize=16;sketch=1;curveFitting=1;jiggle=2;strokeColor=#000000;" parent="1" source="5" edge="1">
                    <mxGeometry relative="1" as="geometry">
                        <mxPoint x="400" y="240" as="targetPoint"/>
                    </mxGeometry>
                </mxCell>
                <mxCell id="5" value="&lt;font color=&quot;#000000&quot;&gt;stmt&lt;/font&gt;" style="rounded=0;whiteSpace=wrap;html=1;fontSize=16;sketch=1;curveFitting=1;jiggle=2;strokeColor=#000000;fillColor=#00CCCC;" parent="1" vertex="1">
                    <mxGeometry x="180" y="200" width="120" height="80" as="geometry"/>
                </mxCell>
                <mxCell id="10" value="" style="endArrow=none;html=1;fontSize=16;entryX=0.5;entryY=1;entryDx=0;entryDy=0;sketch=1;curveFitting=1;jiggle=2;strokeColor=#000000;" parent="1" target="5" edge="1">
                    <mxGeometry width="50" height="50" relative="1" as="geometry">
                        <mxPoint x="240" y="320" as="sourcePoint"/>
                        <mxPoint x="290" y="280" as="targetPoint"/>
                    </mxGeometry>
                </mxCell>
                <mxCell id="11" value="" style="endArrow=none;html=1;fontSize=16;entryX=0.5;entryY=1;entryDx=0;entryDy=0;sketch=1;curveFitting=1;jiggle=2;strokeColor=#000000;" parent="1" target="5" edge="1">
                    <mxGeometry width="50" height="50" relative="1" as="geometry">
                        <mxPoint x="240" y="320" as="sourcePoint"/>
                        <mxPoint x="240" y="280" as="targetPoint"/>
                    </mxGeometry>
                </mxCell>
                <mxCell id="12" value="" style="endArrow=none;html=1;fontSize=16;sketch=1;curveFitting=1;jiggle=2;strokeColor=#000000;" parent="1" edge="1">
                    <mxGeometry width="50" height="50" relative="1" as="geometry">
                        <mxPoint x="240" y="320" as="sourcePoint"/>
                        <mxPoint x="400" y="320" as="targetPoint"/>
                    </mxGeometry>
                </mxCell>
                <mxCell id="13" value="" style="endArrow=none;html=1;fontSize=16;sketch=1;curveFitting=1;jiggle=2;strokeColor=#000000;" parent="1" edge="1">
                    <mxGeometry width="50" height="50" relative="1" as="geometry">
                        <mxPoint x="400" y="320" as="sourcePoint"/>
                        <mxPoint x="400" y="130" as="targetPoint"/>
                    </mxGeometry>
                </mxCell>
                <mxCell id="14" value="" style="endArrow=classic;html=1;fontSize=16;entryX=1;entryY=0.5;entryDx=0;entryDy=0;sketch=1;curveFitting=1;jiggle=2;strokeColor=#000000;" parent="1" target="3" edge="1">
                    <mxGeometry width="50" height="50" relative="1" as="geometry">
                        <mxPoint x="400" y="130" as="sourcePoint"/>
                        <mxPoint x="290" y="280" as="targetPoint"/>
                    </mxGeometry>
                </mxCell>
                <mxCell id="15" value="" style="endArrow=none;html=1;fontSize=16;entryX=0;entryY=0.5;entryDx=0;entryDy=0;sketch=1;curveFitting=1;jiggle=2;strokeColor=#000000;" parent="1" target="3" edge="1">
                    <mxGeometry width="50" height="50" relative="1" as="geometry">
                        <mxPoint x="80" y="130" as="sourcePoint"/>
                        <mxPoint x="170" y="130" as="targetPoint"/>
                    </mxGeometry>
                </mxCell>
                <mxCell id="16" value="" style="endArrow=none;html=1;fontSize=16;sketch=1;curveFitting=1;jiggle=2;strokeColor=#000000;" parent="1" edge="1">
                    <mxGeometry width="50" height="50" relative="1" as="geometry">
                        <mxPoint x="80" y="360" as="sourcePoint"/>
                        <mxPoint x="80" y="130" as="targetPoint"/>
                    </mxGeometry>
                </mxCell>
                <mxCell id="17" value="" style="endArrow=none;html=1;fontSize=16;sketch=1;curveFitting=1;jiggle=2;strokeColor=#000000;" parent="1" edge="1">
                    <mxGeometry width="50" height="50" relative="1" as="geometry">
                        <mxPoint x="80" y="360" as="sourcePoint"/>
                        <mxPoint x="240" y="360" as="targetPoint"/>
                    </mxGeometry>
                </mxCell>
                <mxCell id="18" value="" style="endArrow=classic;html=1;fontSize=16;sketch=1;curveFitting=1;jiggle=2;strokeColor=#000000;" parent="1" edge="1">
                    <mxGeometry width="50" height="50" relative="1" as="geometry">
                        <mxPoint x="240" y="360" as="sourcePoint"/>
                        <mxPoint x="240" y="410" as="targetPoint"/>
                    </mxGeometry>
                </mxCell>
                <mxCell id="19" value="" style="endArrow=classic;html=1;fontSize=16;entryX=0.5;entryY=0;entryDx=0;entryDy=0;sketch=1;curveFitting=1;jiggle=2;strokeColor=#000000;" parent="1" target="3" edge="1">
                    <mxGeometry width="50" height="50" relative="1" as="geometry">
                        <mxPoint x="240" y="50" as="sourcePoint"/>
                        <mxPoint x="290" y="280" as="targetPoint"/>
                    </mxGeometry>
                </mxCell>
                <mxCell id="20" value="" style="endArrow=classic;html=1;fontSize=16;dashed=1;exitX=0;exitY=0.5;exitDx=0;exitDy=0;sketch=1;curveFitting=1;jiggle=2;strokeColor=#000000;" parent="1" source="5" edge="1">
                    <mxGeometry width="50" height="50" relative="1" as="geometry">
                        <mxPoint x="240" y="330" as="sourcePoint"/>
                        <mxPoint x="80" y="240" as="targetPoint"/>
                    </mxGeometry>
                </mxCell>
                <mxCell id="22" value="&lt;font color=&quot;#000000&quot;&gt;continue&lt;/font&gt;" style="text;html=1;align=center;verticalAlign=middle;resizable=0;points=[];autosize=1;strokeColor=none;fillColor=none;fontSize=16;sketch=1;curveFitting=1;jiggle=2;" parent="1" vertex="1">
                    <mxGeometry x="311" y="205" width="78" height="31" as="geometry"/>
                </mxCell>
                <mxCell id="23" value="&lt;font color=&quot;#000000&quot;&gt;break&lt;/font&gt;" style="text;html=1;align=center;verticalAlign=middle;resizable=0;points=[];autosize=1;strokeColor=none;fillColor=none;fontSize=16;sketch=1;curveFitting=1;jiggle=2;" parent="1" vertex="1">
                    <mxGeometry x="101" y="205" width="58" height="31" as="geometry"/>
                </mxCell>
                <mxCell id="24" value="&lt;font color=&quot;#ff3333&quot;&gt;== 0&lt;/font&gt;" style="text;html=1;align=center;verticalAlign=middle;resizable=0;points=[];autosize=1;strokeColor=none;fillColor=none;fontSize=16;sketch=1;curveFitting=1;jiggle=2;" parent="1" vertex="1">
                    <mxGeometry x="100" y="95" width="60" height="30" as="geometry"/>
                </mxCell>
                <mxCell id="25" value="&lt;font color=&quot;#ff3333&quot;&gt;!= 0&lt;/font&gt;" style="text;html=1;align=center;verticalAlign=middle;resizable=0;points=[];autosize=1;strokeColor=none;fillColor=none;fontSize=16;sketch=1;curveFitting=1;jiggle=2;" parent="1" vertex="1">
                    <mxGeometry x="240" y="160" width="50" height="30" as="geometry"/>
                </mxCell>
                <mxCell id="26" value="&lt;font style=&quot;font-size: 16px;&quot;&gt;while 循环执行流程图&lt;/font&gt;" style="text;html=1;align=center;verticalAlign=middle;resizable=0;points=[];autosize=1;strokeColor=none;fillColor=none;fontSize=20;fontFamily=Architects Daughter;fontColor=#000000;sketch=1;hachureGap=4;jiggle=2;curveFitting=1;fontSource=https%3A%2F%2Ffonts.googleapis.com%2Fcss%3Ffamily%3DArchitects%2BDaughter;" parent="1" vertex="1">
                    <mxGeometry x="150" y="416" width="171" height="36" as="geometry"/>
                </mxCell>
            </root>
        </mxGraphModel>
    </diagram>
</mxfile>